<svg xmlns="http://www.w3.org/2000/svg" xmlns:xlink="http://www.w3.org/1999/xlink" width="94" zoomAndPan="magnify" viewBox="0 0 70.5 70.499999" height="94" preserveAspectRatio="xMidYMid meet" version="1.0"><defs><g/><clipPath id="00c0f66317"><path d="M 3.75 4.554688 L 66.066406 4.554688 L 66.066406 65.214844 L 3.75 65.214844 Z M 3.75 4.554688 " clip-rule="nonzero"/></clipPath><clipPath id="a8f347eef5"><path d="M 12.921875 4.789062 L 57.078125 4.789062 C 59.449219 4.789062 61.722656 5.730469 63.398438 7.40625 C 65.074219 9.082031 66.015625 11.355469 66.015625 13.726562 L 66.015625 56.277344 C 66.015625 58.648438 65.074219 60.921875 63.398438 62.597656 C 61.722656 64.273438 59.449219 65.214844 57.078125 65.214844 L 12.921875 65.214844 C 10.554688 65.214844 8.28125 64.273438 6.605469 62.597656 C 4.929688 60.921875 3.988281 58.648438 3.988281 56.277344 L 3.988281 13.726562 C 3.988281 11.355469 4.929688 9.082031 6.605469 7.40625 C 8.28125 5.730469 10.554688 4.789062 12.921875 4.789062 Z M 12.921875 4.789062 " clip-rule="nonzero"/></clipPath></defs><g clip-path="url(#00c0f66317)"><g clip-path="url(#a8f347eef5)"><path fill="#003071" d="M 3.988281 4.789062 L 66.066406 4.789062 L 66.066406 65.214844 L 3.988281 65.214844 Z M 3.988281 4.789062 " fill-opacity="1" fill-rule="nonzero"/></g></g><g fill="#ffffff" fill-opacity="1"><g transform="translate(24.183557, 59.97447)"><g><path d="M 13.578125 -29.390625 L 21.296875 -29.390625 L 21.296875 -22.6875 L 13.8125 -22.6875 L 13.8125 0 L 5.09375 0 L 5.09375 -22.6875 L 0.453125 -22.6875 L 0.453125 -29.390625 L 5.09375 -29.390625 L 5.09375 -30.734375 C 5.09375 -34.160156 6.101562 -36.878906 8.125 -38.890625 C 10.15625 -40.910156 13.019531 -41.921875 16.71875 -41.921875 C 18.019531 -41.921875 19.253906 -41.78125 20.421875 -41.5 C 21.597656 -41.21875 22.578125 -40.816406 23.359375 -40.296875 L 21.078125 -33.984375 C 20.066406 -34.691406 18.890625 -35.046875 17.546875 -35.046875 C 14.898438 -35.046875 13.578125 -33.59375 13.578125 -30.6875 Z M 13.578125 -29.390625 "/></g></g></g></svg>