<svg xmlns="http://www.w3.org/2000/svg" xmlns:xlink="http://www.w3.org/1999/xlink" width="94" zoomAndPan="magnify" viewBox="0 0 70.5 70.499999" height="94" preserveAspectRatio="xMidYMid meet" version="1.0"><defs><g/><clipPath id="02abb6caa9"><path d="M 3.75 4.554688 L 66.066406 4.554688 L 66.066406 65.214844 L 3.75 65.214844 Z M 3.75 4.554688 " clip-rule="nonzero"/></clipPath><clipPath id="fe63a2af07"><path d="M 12.921875 4.789062 L 57.078125 4.789062 C 59.449219 4.789062 61.722656 5.730469 63.398438 7.40625 C 65.074219 9.082031 66.015625 11.355469 66.015625 13.726562 L 66.015625 56.277344 C 66.015625 58.648438 65.074219 60.921875 63.398438 62.597656 C 61.722656 64.273438 59.449219 65.214844 57.078125 65.214844 L 12.921875 65.214844 C 10.554688 65.214844 8.28125 64.273438 6.605469 62.597656 C 4.929688 60.921875 3.988281 58.648438 3.988281 56.277344 L 3.988281 13.726562 C 3.988281 11.355469 4.929688 9.082031 6.605469 7.40625 C 8.28125 5.730469 10.554688 4.789062 12.921875 4.789062 Z M 12.921875 4.789062 " clip-rule="nonzero"/></clipPath></defs><g clip-path="url(#02abb6caa9)"><g clip-path="url(#fe63a2af07)"><path fill="#003071" d="M 3.988281 4.789062 L 66.066406 4.789062 L 66.066406 65.214844 L 3.988281 65.214844 Z M 3.988281 4.789062 " fill-opacity="1" fill-rule="nonzero"/></g></g><g fill="#ffffff" fill-opacity="1"><g transform="translate(4.656196, 60.927967)"><g><path d="M 4.84375 -36.234375 L 15.359375 -36.234375 L 15.359375 0 L 4.84375 0 Z M 10.109375 -41.296875 C 8.171875 -41.296875 6.597656 -41.851562 5.390625 -42.96875 C 4.179688 -44.09375 3.578125 -45.488281 3.578125 -47.15625 C 3.578125 -48.8125 4.179688 -50.203125 5.390625 -51.328125 C 6.597656 -52.453125 8.171875 -53.015625 10.109375 -53.015625 C 12.035156 -53.015625 13.601562 -52.472656 14.8125 -51.390625 C 16.03125 -50.316406 16.640625 -48.972656 16.640625 -47.359375 C 16.640625 -45.609375 16.03125 -44.160156 14.8125 -43.015625 C 13.601562 -41.867188 12.035156 -41.296875 10.109375 -41.296875 Z M 10.109375 -41.296875 "/></g></g></g><g fill="#ffffff" fill-opacity="1"><g transform="translate(18.798921, 60.927967)"><g><path d="M 26.875 -36.78125 C 31.363281 -36.78125 34.988281 -35.429688 37.75 -32.734375 C 40.507812 -30.035156 41.890625 -26.039062 41.890625 -20.75 L 41.890625 0 L 31.390625 0 L 31.390625 -19.125 C 31.390625 -22 30.757812 -24.144531 29.5 -25.5625 C 28.25 -26.976562 26.429688 -27.6875 24.046875 -27.6875 C 21.398438 -27.6875 19.289062 -26.863281 17.71875 -25.21875 C 16.144531 -23.582031 15.359375 -21.148438 15.359375 -17.921875 L 15.359375 0 L 4.84375 0 L 4.84375 -36.234375 L 14.890625 -36.234375 L 14.890625 -32 C 16.273438 -33.519531 18 -34.695312 20.0625 -35.53125 C 22.132812 -36.363281 24.40625 -36.78125 26.875 -36.78125 Z M 26.875 -36.78125 "/></g></g></g></svg>