<svg xmlns="http://www.w3.org/2000/svg" xmlns:xlink="http://www.w3.org/1999/xlink" width="94" zoomAndPan="magnify" viewBox="0 0 70.5 70.499999" height="94" preserveAspectRatio="xMidYMid meet" version="1.0"><defs><clipPath id="b801a3b8ec"><path d="M 3.976562 4.78125 L 66.25 4.78125 L 66.25 67 L 3.976562 67 Z M 3.976562 4.78125 " clip-rule="nonzero"/></clipPath><clipPath id="b47e7786f1"><path d="M 57.070312 66.808594 L 12.914062 66.808594 C 10.542969 66.808594 8.273438 65.867188 6.59375 64.191406 C 4.917969 62.515625 3.976562 60.242188 3.976562 57.875 L 3.976562 13.71875 C 3.976562 11.347656 4.917969 9.074219 6.59375 7.398438 C 8.273438 5.722656 10.542969 4.78125 12.914062 4.78125 L 57.070312 4.78125 C 59.441406 4.78125 61.714844 5.722656 63.390625 7.398438 C 65.066406 9.074219 66.007812 11.347656 66.007812 13.71875 L 66.007812 57.875 C 66.007812 60.242188 65.066406 62.515625 63.390625 64.191406 C 61.714844 65.867188 59.441406 66.808594 57.070312 66.808594 Z M 57.070312 66.808594 " clip-rule="nonzero"/></clipPath><clipPath id="32578c3d18"><path d="M 13 13 L 57 13 L 57 57 L 13 57 Z M 13 13 " clip-rule="nonzero"/></clipPath><clipPath id="dc473fec20"><path d="M 18 34.996094 C 18 25.609375 25.609375 18 34.996094 18 C 44.386719 18 51.996094 25.609375 51.996094 34.996094 C 51.996094 44.386719 44.386719 51.996094 34.996094 51.996094 C 31.648438 51.996094 28.535156 51.027344 25.90625 49.359375 C 25.367188 49.019531 24.703125 48.9375 24.097656 49.140625 L 19.234375 50.761719 L 20.855469 45.898438 C 21.058594 45.292969 20.976562 44.628906 20.632812 44.089844 C 18.96875 41.460938 18 38.347656 18 34.996094 Z M 34.996094 13.753906 C 23.265625 13.753906 13.753906 23.265625 13.753906 34.996094 C 13.753906 38.808594 14.757812 42.386719 16.515625 45.484375 L 13.859375 53.445312 C 13.605469 54.210938 13.804688 55.050781 14.375 55.621094 C 14.941406 56.191406 15.785156 56.390625 16.546875 56.132812 L 24.511719 53.480469 C 27.609375 55.238281 31.1875 56.242188 34.996094 56.242188 C 46.730469 56.242188 56.242188 46.730469 56.242188 34.996094 C 56.242188 23.265625 46.730469 13.753906 34.996094 13.753906 Z M 25.984375 25.984375 C 24.34375 27.625 23.242188 29.605469 22.683594 31.699219 C 22.378906 32.832031 23.054688 33.996094 24.1875 34.300781 C 25.320312 34.601562 26.484375 33.929688 26.789062 32.796875 C 27.160156 31.402344 27.890625 30.085938 28.988281 28.988281 C 30.085938 27.890625 31.402344 27.160156 32.796875 26.789062 C 33.929688 26.484375 34.601562 25.320312 34.300781 24.1875 C 33.996094 23.054688 32.832031 22.378906 31.699219 22.683594 C 29.605469 23.242188 27.625 24.34375 25.984375 25.984375 Z M 38.296875 22.683594 C 37.160156 22.378906 35.996094 23.054688 35.695312 24.1875 C 35.390625 25.320312 36.066406 26.484375 37.199219 26.789062 C 38.59375 27.160156 39.910156 27.890625 41.007812 28.988281 C 42.105469 30.085938 42.835938 31.402344 43.207031 32.796875 C 43.511719 33.929688 44.675781 34.601562 45.808594 34.300781 C 46.941406 33.996094 47.617188 32.832031 47.3125 31.699219 C 46.753906 29.605469 45.652344 27.625 44.011719 25.984375 C 42.371094 24.34375 40.390625 23.242188 38.296875 22.683594 Z M 26.789062 37.199219 C 26.484375 36.066406 25.320312 35.390625 24.1875 35.695312 C 23.054688 35.996094 22.378906 37.164062 22.683594 38.296875 C 23.242188 40.390625 24.34375 42.371094 25.984375 44.011719 C 27.625 45.652344 29.605469 46.753906 31.699219 47.3125 C 32.832031 47.617188 33.996094 46.941406 34.300781 45.808594 C 34.601562 44.675781 33.929688 43.511719 32.796875 43.207031 C 31.402344 42.835938 30.085938 42.105469 28.988281 41.007812 C 27.890625 39.910156 27.160156 38.59375 26.789062 37.199219 Z M 37.199219 43.207031 C 36.066406 43.511719 35.390625 44.675781 35.695312 45.808594 C 35.996094 46.941406 37.160156 47.617188 38.296875 47.3125 C 40.390625 46.753906 42.371094 45.652344 44.011719 44.011719 C 45.652344 42.371094 46.753906 40.390625 47.3125 38.296875 C 47.617188 37.164062 46.941406 35.996094 45.808594 35.695312 C 44.675781 35.390625 43.511719 36.066406 43.207031 37.199219 C 42.835938 38.59375 42.105469 39.910156 41.007812 41.007812 C 39.910156 42.105469 38.59375 42.835938 37.199219 43.207031 Z M 37.199219 43.207031 " clip-rule="evenodd"/></clipPath><clipPath id="9792c6ec2d"><path d="M 20.097656 20.097656 L 49.902344 20.097656 L 49.902344 49.902344 L 20.097656 49.902344 Z M 20.097656 20.097656 " clip-rule="nonzero"/></clipPath><clipPath id="a4f37da0f0"><path d="M 35 49.902344 C 43.230469 49.902344 49.902344 43.230469 49.902344 35 C 49.902344 26.769531 43.230469 20.097656 35 20.097656 C 26.769531 20.097656 20.097656 26.769531 20.097656 35 C 20.097656 43.230469 26.769531 49.902344 35 49.902344 Z M 35 49.902344 " clip-rule="nonzero"/></clipPath><clipPath id="3deb91c312"><path d="M 23.449219 23.425781 L 46.535156 23.425781 L 46.535156 46.515625 L 23.449219 46.515625 Z M 23.449219 23.425781 " clip-rule="nonzero"/></clipPath></defs><g clip-path="url(#b801a3b8ec)"><g clip-path="url(#b47e7786f1)"><path fill="#00a153" d="M 66.007812 66.808594 L 3.976562 66.808594 L 3.976562 4.78125 L 66.007812 4.78125 Z M 66.007812 66.808594 " fill-opacity="1" fill-rule="nonzero"/></g></g><g clip-path="url(#32578c3d18)"><g clip-path="url(#dc473fec20)"><path fill="#ffffff" d="M 13.605469 13.753906 L 13.605469 56.390625 L 56.242188 56.390625 L 56.242188 13.753906 Z M 13.605469 13.753906 " fill-opacity="1" fill-rule="nonzero"/></g></g><g clip-path="url(#9792c6ec2d)"><g clip-path="url(#a4f37da0f0)"><path fill="#00a153" d="M 49.902344 49.902344 L 20.097656 49.902344 L 20.097656 20.097656 L 49.902344 20.097656 Z M 49.902344 49.902344 " fill-opacity="1" fill-rule="nonzero"/></g></g><g clip-path="url(#3deb91c312)"><path fill="#ffffff" d="M 23.457031 26.140625 C 23.457031 25.46875 23.710938 24.808594 24.167969 24.308594 C 24.679688 23.75 25.410156 23.425781 26.164062 23.425781 L 29.804688 23.425781 C 31.183594 23.425781 32.34375 24.453125 32.496094 25.816406 C 32.589844 26.617188 32.753906 27.414062 32.988281 28.1875 C 33.285156 29.152344 33.027344 30.191406 32.320312 30.894531 L 30.84375 32.371094 C 32.390625 35.1875 34.742188 37.535156 37.566406 39.078125 L 39.042969 37.605469 C 39.75 36.898438 40.789062 36.640625 41.753906 36.9375 C 42.527344 37.171875 43.324219 37.335938 44.132812 37.429688 C 45.496094 37.582031 46.527344 38.738281 46.527344 40.113281 L 46.527344 43.746094 C 46.527344 44.507812 46.203125 45.234375 45.644531 45.746094 C 45.082031 46.257812 44.320312 46.515625 43.5625 46.441406 C 40.953125 46.199219 38.433594 45.511719 36.070312 44.386719 C 33.777344 43.296875 31.699219 41.832031 29.894531 40.03125 C 28.089844 38.230469 26.621094 36.160156 25.527344 33.867188 C 24.402344 31.507812 23.710938 28.996094 23.464844 26.386719 C 23.460938 26.304688 23.457031 26.222656 23.457031 26.140625 Z M 23.457031 26.140625 " fill-opacity="1" fill-rule="nonzero"/></g></svg>