<svg xmlns="http://www.w3.org/2000/svg" xmlns:xlink="http://www.w3.org/1999/xlink" width="94" zoomAndPan="magnify" viewBox="0 0 70.5 70.499999" height="94" preserveAspectRatio="xMidYMid meet" version="1.0"><defs><clipPath id="1f15c993e7"><path d="M 3.976562 4.78125 L 66.25 4.78125 L 66.25 67 L 3.976562 67 Z M 3.976562 4.78125 " clip-rule="nonzero"/></clipPath><clipPath id="e63052a38b"><path d="M 57.070312 66.808594 L 12.914062 66.808594 C 10.542969 66.808594 8.273438 65.867188 6.59375 64.191406 C 4.917969 62.515625 3.976562 60.242188 3.976562 57.875 L 3.976562 13.71875 C 3.976562 11.347656 4.917969 9.074219 6.59375 7.398438 C 8.273438 5.722656 10.542969 4.78125 12.914062 4.78125 L 57.070312 4.78125 C 59.441406 4.78125 61.714844 5.722656 63.390625 7.398438 C 65.066406 9.074219 66.007812 11.347656 66.007812 13.71875 L 66.007812 57.875 C 66.007812 60.242188 65.066406 62.515625 63.390625 64.191406 C 61.714844 65.867188 59.441406 66.808594 57.070312 66.808594 Z M 57.070312 66.808594 " clip-rule="nonzero"/></clipPath><clipPath id="f666bce1a1"><path d="M 10.710938 17 L 59.160156 17 L 59.160156 52.875 L 10.710938 52.875 Z M 10.710938 17 " clip-rule="nonzero"/></clipPath><clipPath id="d92a196aa0"><path d="M 19.785156 17.128906 L 50.214844 17.128906 C 52.585938 17.128906 54.859375 18.070312 56.535156 19.746094 C 58.210938 21.421875 59.152344 23.695312 59.152344 26.066406 L 59.152344 43.9375 C 59.152344 46.308594 58.210938 48.582031 56.535156 50.257812 C 54.859375 51.933594 52.585938 52.875 50.214844 52.875 L 19.785156 52.875 C 17.417969 52.875 15.144531 51.933594 13.46875 50.257812 C 11.792969 48.582031 10.851562 46.308594 10.851562 43.9375 L 10.851562 26.066406 C 10.851562 23.695312 11.792969 21.421875 13.46875 19.746094 C 15.144531 18.070312 17.417969 17.128906 19.785156 17.128906 Z M 19.785156 17.128906 " clip-rule="nonzero"/></clipPath><clipPath id="e1600da07b"><path d="M 26 23 L 46 23 L 46 46 L 26 46 Z M 26 23 " clip-rule="nonzero"/></clipPath><clipPath id="e80a0d8c68"><path d="M 17.945312 29.621094 L 37.105469 18.621094 L 47.121094 36.0625 L 27.957031 47.066406 Z M 17.945312 29.621094 " clip-rule="nonzero"/></clipPath><clipPath id="fcc4a8cf88"><path d="M 30.523438 24.1875 L 44.46875 32.367188 C 45.398438 32.914062 45.96875 33.914062 45.964844 34.992188 C 45.957031 36.070312 45.378906 37.0625 44.445312 37.601562 L 30.601562 45.546875 C 29.664062 46.085938 28.515625 46.082031 27.582031 45.542969 C 26.648438 45.003906 26.070312 44.007812 26.070312 42.929688 L 26.039062 26.761719 C 26.035156 25.695312 26.605469 24.707031 27.53125 24.171875 C 28.460938 23.640625 29.601562 23.644531 30.523438 24.1875 Z M 30.523438 24.1875 " clip-rule="nonzero"/></clipPath></defs><g clip-path="url(#1f15c993e7)"><g clip-path="url(#e63052a38b)"><path fill="#ff3131" d="M 66.007812 66.808594 L 3.976562 66.808594 L 3.976562 4.78125 L 66.007812 4.78125 Z M 66.007812 66.808594 " fill-opacity="1" fill-rule="nonzero"/></g></g><g clip-path="url(#f666bce1a1)"><g clip-path="url(#d92a196aa0)"><path fill="#ffffff" d="M 10.851562 17.128906 L 59.160156 17.128906 L 59.160156 52.875 L 10.851562 52.875 Z M 10.851562 17.128906 " fill-opacity="1" fill-rule="nonzero"/></g></g><g clip-path="url(#e1600da07b)"><g clip-path="url(#e80a0d8c68)"><g clip-path="url(#fcc4a8cf88)"><path fill="#ff3131" d="M 14.585938 28.117188 L 37.503906 14.960938 L 49 34.984375 L 26.082031 48.144531 Z M 14.585938 28.117188 " fill-opacity="1" fill-rule="nonzero"/></g></g></g></svg>